<svg width="64" height="64" viewBox="0 0 64 64" fill="none" xmlns="http://www.w3.org/2000/svg">
<path d="M46.56 8H11.59C9.6073 8 8 9.6073 8 11.59V40.52C8 42.5027 9.6073 44.11 11.59 44.11H46.56C48.5427 44.11 50.15 42.5027 50.15 40.52V11.59C50.15 9.6073 48.5427 8 46.56 8Z" fill="#DFE8F4"/>
<path d="M26.8203 35.26V44.11H46.5603C47.5124 44.11 48.4256 43.7318 49.0988 43.0585C49.7721 42.3853 50.1503 41.4721 50.1503 40.52V35.26H26.8203Z" fill="#CCD8E5"/>
<path d="M46.56 8H11.56C10.6131 8.00791 9.70764 8.38963 9.04086 9.06203C8.37408 9.73443 7.99997 10.643 8 11.59V13.27H50.15V11.59C50.15 10.6379 49.7718 9.72474 49.0985 9.05149C48.4253 8.37823 47.5121 8 46.56 8Z" fill="#7367F0"/>
<path d="M13.1698 10.09H12.0898V11.17H13.1698V10.09Z" fill="#544bd8"/>
<path d="M15.3896 10.09H14.3096V11.17H15.3896V10.09Z" fill="#544bd8"/>
<path d="M17.6103 10.09H16.5303V11.17H17.6103V10.09Z" fill="#544bd8"/>
<path d="M50.15 13.27H8V14.84H50.15V13.27Z" fill="#544bd8"/>
<path d="M50.15 17.29H10.45C9.80022 17.29 9.17705 17.0318 8.71759 16.5724C8.25812 16.1129 8 15.4897 8 14.84H50.15V17.29Z" fill="#CCD8E5"/>
<path d="M29 35C33.4183 35 37 31.4183 37 27C37 22.5817 33.4183 19 29 19C24.5817 19 21 22.5817 21 27C21 31.4183 24.5817 35 29 35Z" fill="#7367F0"/>
<path d="M31.922 26.1527V24.8378C31.9249 24.3199 31.7901 23.8104 31.5313 23.3617C31.2725 22.9129 30.8991 22.5411 30.4494 22.2842C30.0052 22.0277 29.5013 21.8927 28.9884 21.8927C28.4755 21.8927 27.9717 22.0277 27.5275 22.2842V22.2842C27.0821 22.544 26.7134 22.9172 26.4588 23.3657C26.2043 23.8143 26.073 24.3222 26.0783 24.8378V26.1527C26.0781 26.6063 26.1973 27.0519 26.424 27.4448C26.6507 27.8377 26.9769 28.164 27.3697 28.3908V28.3908C27.8727 28.6805 28.443 28.833 29.0235 28.833C29.604 28.833 30.1743 28.6805 30.6773 28.3908C31.0614 28.1581 31.3782 27.8294 31.5965 27.4369C31.8148 27.0444 31.927 26.6017 31.922 26.1527V26.1527Z" fill="#544bd8"/>
<path d="M28.9999 34.9942C31.0498 34.995 33.0213 34.206 34.5046 32.7912C33.9327 31.8426 33.1253 31.0579 32.1608 30.5133C31.1964 29.9686 30.1075 29.6824 28.9999 29.6824C27.8922 29.6824 26.8034 29.9686 25.8389 30.5133C24.8744 31.0579 24.0671 31.8426 23.4951 32.7912C24.9785 34.206 26.9499 34.995 28.9999 34.9942Z" fill="#544bd8"/>
<path d="M55.9997 46.3099L54.3897 45.1099C54.2007 44.9616 54.0445 44.7757 53.9309 44.564C53.8173 44.3523 53.7488 44.1194 53.7297 43.8799C53.4959 41.5149 52.3607 39.3305 50.5597 37.7799L49.6097 36.9999C48.6746 36.1989 47.5157 35.7049 46.2903 35.5851C45.0649 35.4652 43.8322 35.7253 42.7597 36.3299L37.2197 39.4699C37.0937 39.5426 36.9485 39.5749 36.8037 39.5624C36.6588 39.5498 36.5213 39.4931 36.4097 39.3999L28.9297 33.2799C28.7357 33.1288 28.4928 33.0544 28.2475 33.071C28.0021 33.0876 27.7715 33.194 27.5997 33.3699C27.0898 33.8849 26.8037 34.5803 26.8037 35.3049C26.8037 36.0296 27.0898 36.725 27.5997 37.2399L35.5997 45.2399C36.1202 45.7559 36.4151 46.4571 36.4197 47.1899V48.4799C36.4362 49.6224 36.8556 50.7224 37.6038 51.5859C38.3521 52.4494 39.3812 53.021 40.5097 53.1999L43.3297 53.6499C43.7665 53.7112 44.1708 53.9151 44.4797 54.2299L46.3097 55.9999C48.8796 55.9999 51.3443 54.979 53.1615 53.1618C54.9788 51.3446 55.9997 48.8799 55.9997 46.3099V46.3099Z" fill="#7367F0"/>
<path d="M33.6301 43.22L27.6201 37.21L33.6301 43.22Z" fill="#DFE8F4"/>
<path d="M44.29 53.98H44.3L44.29 53.97V53.98Z" fill="#CCD8E5"/>
</svg>
