<svg width="64" height="64" viewBox="0 0 64 64" fill="none" xmlns="http://www.w3.org/2000/svg">
<g clip-path="url(#clip0)">
<path d="M38.45 51.6699C38.155 51.6699 37.8629 51.6117 37.5905 51.4985C37.3181 51.3853 37.0707 51.2194 36.8625 51.0103C36.6544 50.8012 36.4896 50.5531 36.3776 50.2802C36.2657 50.0073 36.2087 49.7149 36.21 49.4199V46.1699H29.79V49.4199C29.7913 49.7149 29.7344 50.0073 29.6224 50.2802C29.5104 50.5531 29.3456 50.8012 29.1375 51.0103C28.9293 51.2194 28.6819 51.3853 28.4095 51.4985C28.1371 51.6117 27.845 51.6699 27.55 51.6699C26.6085 51.6699 25.7055 52.0439 25.0398 52.7097C24.374 53.3754 24 54.2784 24 55.2199V55.2199C24.0026 55.6929 24.1924 56.1457 24.5278 56.4792C24.8632 56.8127 25.317 56.9999 25.79 56.9999H40.21C40.683 56.9999 41.1368 56.8127 41.4722 56.4792C41.8076 56.1457 41.9974 55.6929 42 55.2199V55.2199C42 54.2784 41.626 53.3754 40.9602 52.7097C40.2945 52.0439 39.3915 51.6699 38.45 51.6699V51.6699Z" fill="#7367F0"/>
<path d="M38.45 51.6699H27.55C26.6085 51.6699 25.7055 52.0439 25.0398 52.7097C24.374 53.3754 24 54.2784 24 55.2199V55.2199C24.0026 55.6929 24.1924 56.1457 24.5278 56.4792C24.8632 56.8127 25.317 56.9999 25.79 56.9999H40.21C40.683 56.9999 41.1368 56.8127 41.4722 56.4792C41.8076 56.1457 41.9974 55.6929 42 55.2199V55.2199C42 54.2784 41.626 53.3754 40.9602 52.7097C40.2945 52.0439 39.3915 51.6699 38.45 51.6699V51.6699Z" fill="#7367F0"/>
<path d="M52.96 14.1699H13.04C10.8088 14.1699 9 15.9787 9 18.2099V44.1299C9 46.3612 10.8088 48.1699 13.04 48.1699H52.96C55.1912 48.1699 57 46.3612 57 44.1299V18.2099C57 15.9787 55.1912 14.1699 52.96 14.1699Z" fill="#DFE8F4"/>
<path d="M9 42.3799V44.1299C9 45.1907 9.42143 46.2082 10.1716 46.9583C10.9217 47.7085 11.9391 48.1299 13 48.1299H53C54.0609 48.1299 55.0783 47.7085 55.8284 46.9583C56.5786 46.2082 57 45.1907 57 44.1299V42.3799H9Z" fill="#7367F0"/>
<path d="M57 40.3101H9V42.3701H57V40.3101Z" fill="#CCD8E5"/>
<path d="M20.295 17.5H3.705C2.48721 17.5 1.5 18.4872 1.5 19.705V36.295C1.5 37.5128 2.48721 38.5 3.705 38.5H20.295C21.5128 38.5 22.5 37.5128 22.5 36.295V19.705C22.5 18.4872 21.5128 17.5 20.295 17.5Z" fill="#CCD8E5"/>
<path d="M3.6875 38.5H20.3125C20.8927 38.5 21.4491 38.2695 21.8593 37.8593C22.2695 37.4491 22.5 36.8927 22.5 36.3125V24.9375L19.3281 28.1094L15.3906 24.1719L6.77187 32.76L4.30875 30.2969L1.5 33.1056V36.3125C1.5 36.8927 1.73047 37.4491 2.1407 37.8593C2.55094 38.2695 3.10734 38.5 3.6875 38.5V38.5Z" fill="#7367F0"/>
<path d="M22.5 24.6269L19.3281 27.7988L15.3731 23.8438L6.77187 32.4494L4.30875 29.9863L1.5 32.795V33.4119L4.30875 30.6075L6.77187 33.0706L15.3731 24.465L19.3281 28.42L22.5 25.2481V24.6269Z" fill="#7367F0"/>
<path d="M5.12695 30.3057C5.12695 30.4787 5.07564 30.6479 4.97949 30.7918C4.88334 30.9357 4.74669 31.0478 4.5868 31.1141C4.42692 31.1803 4.25098 31.1976 4.08125 31.1639C3.91152 31.1301 3.75561 31.0468 3.63324 30.9244C3.51086 30.802 3.42753 30.6461 3.39377 30.4764C3.36 30.3066 3.37733 30.1307 3.44356 29.9708C3.50979 29.8109 3.62194 29.6743 3.76583 29.5781C3.90972 29.482 4.0789 29.4307 4.25195 29.4307C4.48402 29.4307 4.70658 29.5229 4.87067 29.6869C5.03477 29.851 5.12695 30.0736 5.12695 30.3057Z" fill="#7367F0"/>
<path d="M15.3643 25.0206C15.8427 25.0206 16.2305 24.6328 16.2305 24.1543C16.2305 23.6759 15.8427 23.2881 15.3643 23.2881C14.8859 23.2881 14.498 23.6759 14.498 24.1543C14.498 24.6328 14.8859 25.0206 15.3643 25.0206Z" fill="#7367F0"/>
<path d="M6.75004 33.5518C7.22846 33.5518 7.61629 33.164 7.61629 32.6856C7.61629 32.2072 7.22846 31.8193 6.75004 31.8193C6.27162 31.8193 5.88379 32.2072 5.88379 32.6856C5.88379 33.164 6.27162 33.5518 6.75004 33.5518Z" fill="#7367F0"/>
<path d="M20.2075 28C20.2075 28.1731 20.1562 28.3422 20.0601 28.4861C19.9639 28.63 19.8273 28.7422 19.6674 28.8084C19.5075 28.8746 19.3316 28.8919 19.1618 28.8582C18.9921 28.8244 18.8362 28.7411 18.7138 28.6187C18.5914 28.4963 18.5081 28.3404 18.4743 28.1707C18.4406 28.001 18.4579 27.825 18.5241 27.6652C18.5904 27.5053 18.7025 27.3686 18.8464 27.2725C18.9903 27.1763 19.1595 27.125 19.3325 27.125C19.5646 27.125 19.7871 27.2172 19.9512 27.3813C20.1153 27.5454 20.2075 27.7679 20.2075 28Z" fill="#7367F0"/>
<path d="M58.6375 18.3218H45.3625C44.8862 18.3218 44.5 18.7079 44.5 19.1843V20.6374C44.5 21.1137 44.8862 21.4999 45.3625 21.4999H58.6375C59.1138 21.4999 59.5 21.1137 59.5 20.6374V19.1843C59.5 18.7079 59.1138 18.3218 58.6375 18.3218Z" fill="#C6CDD5"/>
<path d="M59.5 20.6374V19.1843C59.5 18.9555 59.4091 18.7361 59.2474 18.5744C59.0856 18.4126 58.8662 18.3218 58.6375 18.3218H51.3344L50.6 18.5249L52.8343 20.7593C53.0683 20.9942 53.3464 21.1806 53.6526 21.3077C53.9588 21.4348 54.2872 21.5001 54.6187 21.4999H58.6375C58.7509 21.5003 58.8632 21.4783 58.968 21.4351C59.0729 21.3919 59.1681 21.3284 59.2483 21.2482C59.3284 21.168 59.392 21.0728 59.4352 20.968C59.4784 20.8631 59.5004 20.7508 59.5 20.6374V20.6374Z" fill="#CCD8E5"/>
<path d="M57.1687 13.972H55.5875V9.15635C55.5875 9.03816 55.5642 8.92113 55.519 8.81193C55.4737 8.70274 55.4074 8.60352 55.3239 8.51995C55.2403 8.43638 55.1411 8.37009 55.0319 8.32486C54.9227 8.27963 54.8057 8.25635 54.6875 8.25635H49.3125C49.0738 8.25635 48.8449 8.35117 48.6761 8.51995C48.5073 8.68873 48.4125 8.91765 48.4125 9.15635V13.972H46.8312C46.7634 13.9635 46.6946 13.9775 46.6355 14.0118C46.5764 14.0462 46.5302 14.099 46.5039 14.1621C46.4777 14.2252 46.4729 14.2952 46.4902 14.3614C46.5076 14.4275 46.5461 14.4861 46.6 14.5282L51.7687 19.697C51.798 19.7292 51.8337 19.7549 51.8735 19.7726C51.9134 19.7902 51.9564 19.7993 52 19.7993C52.0435 19.7993 52.0866 19.7902 52.1264 19.7726C52.1662 19.7549 52.2019 19.7292 52.2312 19.697L57.4 14.5282C57.4538 14.4861 57.4924 14.4275 57.5097 14.3614C57.5271 14.2952 57.5223 14.2252 57.496 14.1621C57.4698 14.099 57.4235 14.0462 57.3644 14.0118C57.3053 13.9775 57.2366 13.9635 57.1687 13.972Z" fill="#7367F0"/>
</g>
<defs>
<clipPath id="clip0">
<rect width="64" height="64" fill="white"/>
</clipPath>
</defs>
</svg>
