<svg width="64" height="64" viewBox="0 0 64 64" fill="none" xmlns="http://www.w3.org/2000/svg">
<path d="M51.91 11.4399H12.09C9.83116 11.4399 8 13.2711 8 15.5299V48.4799C8 50.7388 9.83116 52.5699 12.09 52.5699H51.91C54.1688 52.5699 56 50.7388 56 48.4799V15.5299C56 13.2711 54.1688 11.4399 51.91 11.4399Z" fill="#DFE8F4"/>
<path d="M51.91 11.4399H12.09C11.0053 11.4399 9.96496 11.8709 9.19793 12.6379C8.43091 13.4049 8 14.4452 8 15.5299V17.4399H56V15.5299C56 14.9928 55.8942 14.461 55.6887 13.9648C55.4831 13.4685 55.1819 13.0177 54.8021 12.6379C54.4223 12.2581 53.9714 11.9568 53.4752 11.7513C52.979 11.5457 52.4471 11.4399 51.91 11.4399V11.4399Z" fill="#7367F0"/>
<path d="M13.8902 13.8199H12.6602V15.0499H13.8902V13.8199Z" fill="#544bd8"/>
<path d="M16.4204 13.8199H15.1904V15.0499H16.4204V13.8199Z" fill="#544bd8"/>
<path d="M18.94 13.8199H17.71V15.0499H18.94V13.8199Z" fill="#544bd8"/>
<path d="M56 17.4399H8V18.0899H56V17.4399Z" fill="#544bd8"/>
<path d="M56 20.88H10.79C10.4228 20.88 10.0592 20.8075 9.72002 20.6666C9.38086 20.5258 9.07285 20.3194 8.81365 20.0593C8.55444 19.7991 8.34914 19.4904 8.20952 19.1507C8.0699 18.8111 7.9987 18.4472 8.00002 18.08H56V20.88Z" fill="#CCD8E5"/>
<path d="M41.4702 23.17C40.9372 23.1728 40.4203 23.3522 40.0002 23.68C38.2769 24.859 36.3186 25.6505 34.2602 26L27.5302 27.43C25.9652 27.7618 24.3699 27.9294 22.7702 27.93H20.0902C19.0202 27.93 18.1602 30.67 18.1602 34.05C18.1602 37.43 19.0002 40.2 20.0902 40.2C20.6176 40.1998 21.1335 40.3541 21.5742 40.6438C22.0149 40.9334 22.3612 41.3458 22.5702 41.83L24.2602 45.71C24.4645 46.1794 24.8014 46.5788 25.2295 46.8595C25.6576 47.1402 26.1583 47.2898 26.6702 47.29V47.29C26.7263 47.3014 26.7841 47.3014 26.8402 47.29C26.8829 47.3002 26.9274 47.3002 26.9702 47.29V47.29C27.2074 47.2874 27.4418 47.238 27.6598 47.1445C27.8779 47.051 28.0753 46.9153 28.2407 46.7452C28.4061 46.5751 28.5363 46.374 28.6237 46.1535C28.7112 45.9329 28.7541 45.6973 28.7502 45.46C28.7483 45.0623 28.7716 44.6648 28.8202 44.27C28.8767 43.8595 29.0176 43.4652 29.2341 43.1118C29.4507 42.7585 29.738 42.4538 30.0781 42.2171C30.4182 41.9803 30.8037 41.8166 31.2102 41.7362C31.6168 41.6558 32.0355 41.6605 32.4402 41.75V41.75L35.4402 42.38C37.1017 42.7249 38.6618 43.4468 40.0002 44.49C40.4203 44.8179 40.9372 44.9972 41.4702 45C44.4702 45 45.8402 39.52 45.8402 34.09C45.8402 28.66 44.4902 23.17 41.4702 23.17ZM42.0502 41.27C42.0019 41.3829 41.9208 41.4786 41.8173 41.5446C41.7138 41.6106 41.5928 41.6439 41.4702 41.64V26.53C41.594 26.527 41.7158 26.5617 41.8194 26.6296C41.923 26.6975 42.0035 26.7953 42.0502 26.91C42.8731 29.2113 43.2531 31.6475 43.1702 34.09C43.2522 36.5325 42.8722 38.9686 42.0502 41.27V41.27Z" fill="white"/>
<path d="M41.4704 43.67C43.1439 43.67 44.5004 39.3809 44.5004 34.09C44.5004 28.7991 43.1439 24.51 41.4704 24.51C39.797 24.51 38.4404 28.7991 38.4404 34.09C38.4404 39.3809 39.797 43.67 41.4704 43.67Z" fill="#544bd8"/>
<path d="M41.4696 45C38.4696 45 37.0996 39.52 37.0996 34.09C37.0996 28.66 38.4496 23.17 41.4696 23.17C44.4896 23.17 45.8396 28.65 45.8396 34.09C45.8396 39.53 44.4896 45 41.4696 45ZM42.0496 26.91C42.0034 26.7954 41.9239 26.6972 41.8215 26.628C41.719 26.5589 41.5982 26.5219 41.4746 26.5219C41.351 26.5219 41.2302 26.5589 41.1278 26.628C41.0253 26.6972 40.9458 26.7954 40.8996 26.91C40.0671 29.209 39.6835 31.6465 39.7696 34.09C39.6845 36.5336 40.068 38.9708 40.8996 41.27C40.9493 41.381 41.03 41.4752 41.132 41.5413C41.2341 41.6074 41.353 41.6426 41.4746 41.6426C41.5962 41.6426 41.7152 41.6074 41.8172 41.5413C41.9192 41.4752 41.9999 41.381 42.0496 41.27C42.8716 38.9686 43.2516 36.5325 43.1696 34.09C43.2526 31.6475 42.8726 29.2113 42.0496 26.91Z" fill="#7367F0"/>
</svg>
