<svg width="64" height="64" viewBox="0 0 64 64" fill="none" xmlns="http://www.w3.org/2000/svg">
<path d="M40.7 45.4201L39.07 43.8001C38.0074 42.7425 36.5692 42.1487 35.07 42.1487C33.5708 42.1487 32.1326 42.7425 31.07 43.8001V43.8001C30.8918 43.9789 30.7507 44.191 30.6546 44.4244C30.5585 44.6577 30.5094 44.9077 30.51 45.1601C30.5171 45.6249 30.3544 46.0763 30.0525 46.4298C29.7506 46.7832 29.3302 47.0145 28.87 47.0801C27.252 47.2891 25.6075 47.1243 24.0632 46.5983C22.5188 46.0723 21.1157 45.1991 19.9616 44.046C18.8075 42.8929 17.9331 41.4904 17.4059 39.9465C16.8786 38.4026 16.7124 36.7583 16.92 35.1401C16.9856 34.6799 17.2169 34.2595 17.5703 33.9576C17.9238 33.6557 18.3752 33.493 18.84 33.5001V33.5001C19.0924 33.5007 19.3424 33.4516 19.5757 33.3555C19.8091 33.2594 20.0212 33.1183 20.2 32.9401V32.9401C21.2576 31.8775 21.8514 30.4393 21.8514 28.9401C21.8514 27.4409 21.2576 26.0027 20.2 24.9401L18.58 23.3001C18.0423 22.7521 17.39 22.3299 16.6698 22.0639C15.9497 21.7978 15.1795 21.6946 14.4147 21.7615C13.6499 21.8284 12.9094 22.0639 12.2464 22.4509C11.5834 22.838 11.0143 23.367 10.58 24.0001C8.68715 26.8366 7.7805 30.2172 7.99999 33.6201C8.40334 39.4226 10.8907 44.8836 15.0036 48.9965C19.1165 53.1094 24.5775 55.5968 30.38 56.0001C33.7841 56.2167 37.1648 55.3065 40 53.4101C40.6314 52.9757 41.1589 52.4071 41.5449 51.7449C41.9309 51.0828 42.1657 50.3435 42.2326 49.58C42.2995 48.8166 42.1968 48.0477 41.9318 47.3286C41.6669 46.6094 41.2462 45.9577 40.7 45.4201Z" fill="#DFE8F4"/>
<path d="M39.9 28.1499L31.9 36.1499C31.7957 36.2582 31.6613 36.3326 31.5142 36.3635C31.367 36.3944 31.214 36.3803 31.075 36.3232C30.9359 36.2661 30.8172 36.1685 30.7343 36.0431C30.6514 35.9177 30.6081 35.7702 30.61 35.6199V28.1499H39.9Z" fill="#115E59"/>
<path d="M28.08 33.0601H54.01C55.109 33.0601 56 32.1691 56 31.0701V9.99006C56 8.89101 55.109 8.00006 54.01 8.00006L28.08 8.00006C26.981 8.00006 26.09 8.89101 26.09 9.99006L26.09 31.0701C26.09 32.1691 26.981 33.0601 28.08 33.0601Z" fill="#7367F0"/>
<path d="M41.04 28.78C45.5964 28.78 49.29 25.0864 49.29 20.53C49.29 15.9737 45.5964 12.28 41.04 12.28C36.4837 12.28 32.79 15.9737 32.79 20.53C32.79 25.0864 36.4837 28.78 41.04 28.78Z" fill="white"/>
<path d="M38.52 19.7401C38.9342 19.7401 39.27 19.261 39.27 18.6701C39.27 18.0792 38.9342 17.6001 38.52 17.6001C38.1058 17.6001 37.77 18.0792 37.77 18.6701C37.77 19.261 38.1058 19.7401 38.52 19.7401Z" fill="#7367F0"/>
<path d="M43.5699 19.7401C43.9842 19.7401 44.3199 19.261 44.3199 18.6701C44.3199 18.0792 43.9842 17.6001 43.5699 17.6001C43.1557 17.6001 42.8199 18.0792 42.8199 18.6701C42.8199 19.261 43.1557 19.7401 43.5699 19.7401Z" fill="#7367F0"/>
<path d="M38.19 21C38.1332 21.0005 38.0772 21.0135 38.0259 21.0379C37.9746 21.0624 37.9292 21.0978 37.893 21.1416C37.8568 21.1854 37.8307 21.2366 37.8163 21.2916C37.802 21.3466 37.7998 21.4041 37.81 21.46C37.9245 22.2362 38.3143 22.9453 38.9082 23.458C39.502 23.9708 40.2605 24.2528 41.045 24.2528C41.8296 24.2528 42.5881 23.9708 43.1819 23.458C43.7758 22.9453 44.1656 22.2362 44.28 21.46C44.2885 21.4043 44.2852 21.3475 44.2702 21.2932C44.2552 21.2389 44.2289 21.1884 44.193 21.1449C44.1571 21.1015 44.1125 21.0662 44.062 21.0412C44.0115 21.0162 43.9563 21.0022 43.9 21H38.19Z" fill="#7367F0"/>
</svg>
