<svg width="64" height="64" viewBox="0 0 64 64" fill="none" xmlns="http://www.w3.org/2000/svg">
<path d="M32 32C38.6274 32 44 26.6274 44 20C44 13.3726 38.6274 8 32 8C25.3726 8 20 13.3726 20 20C20 26.6274 25.3726 32 32 32Z" fill="#7367F0"/>
<path d="M32.0503 18.93C31.8165 18.9228 31.5917 18.8385 31.4108 18.6902C31.2299 18.5418 31.1032 18.3379 31.0503 18.11C31.0186 17.9623 31.0207 17.8094 31.0565 17.6626C31.0923 17.5159 31.1609 17.3791 31.2571 17.2627C31.3534 17.1463 31.4747 17.0531 31.6121 16.9903C31.7495 16.9275 31.8993 16.8966 32.0503 16.9C32.2292 16.8985 32.4052 16.9451 32.56 17.0348C32.7148 17.1245 32.8427 17.254 32.9303 17.41C33.0217 17.5687 33.1549 17.6992 33.3153 17.7874C33.4758 17.8755 33.6574 17.918 33.8403 17.91C34.0275 17.9208 34.2143 17.8817 34.3815 17.7968C34.5487 17.7118 34.6903 17.584 34.792 17.4264C34.8937 17.2688 34.9517 17.0871 34.9602 16.8997C34.9687 16.7124 34.9273 16.5261 34.8403 16.36C34.4347 15.7071 33.8057 15.2237 33.0703 15V15C33.0703 14.7348 32.965 14.4804 32.7774 14.2929C32.5899 14.1054 32.3355 14 32.0703 14H31.9303C31.6651 14 31.4107 14.1054 31.2232 14.2929C31.0357 14.4804 30.9303 14.7348 30.9303 15C30.5212 15.1502 30.1472 15.3826 29.8315 15.683C29.5157 15.9833 29.2648 16.3452 29.0942 16.7462C28.9237 17.1472 28.8371 17.579 28.8399 18.0148C28.8427 18.4506 28.9347 18.8812 29.1103 19.28C29.3756 19.8338 29.7929 20.3007 30.3134 20.6265C30.8339 20.9523 31.4363 21.1234 32.0503 21.12C32.3155 21.12 32.5699 21.2254 32.7574 21.4129C32.945 21.6004 33.0503 21.8548 33.0503 22.12C33.0503 22.3852 32.945 22.6396 32.7574 22.8271C32.5699 23.0146 32.3155 23.12 32.0503 23.12C31.8714 23.1215 31.6954 23.0749 31.5406 22.9852C31.3859 22.8955 31.258 22.766 31.1703 22.61C31.0789 22.4513 30.9458 22.3208 30.7853 22.2326C30.6248 22.1445 30.4432 22.102 30.2603 22.11V22.11C30.0773 22.1083 29.8969 22.154 29.7367 22.2426C29.5766 22.3313 29.4421 22.46 29.3465 22.616C29.2508 22.7721 29.1972 22.9503 29.1909 23.1333C29.1845 23.3162 29.2257 23.4977 29.3103 23.66C29.6822 24.3131 30.2741 24.8128 30.9803 25.07V25.07C30.9803 25.3352 31.0857 25.5896 31.2732 25.7771C31.4607 25.9646 31.7151 26.07 31.9803 26.07H32.1203C32.3855 26.07 32.6399 25.9646 32.8274 25.7771C33.015 25.5896 33.1203 25.3352 33.1203 25.07C33.8172 24.824 34.4054 24.3408 34.7821 23.7049C35.1587 23.0691 35.2998 22.321 35.1806 21.5917C35.0614 20.8623 34.6896 20.1981 34.1301 19.7151C33.5707 19.2322 32.8593 18.9614 32.1203 18.95L32.0503 18.93Z" fill="white"/>
<path d="M52.56 31L44.1 34.91C42.996 35.4301 41.7777 35.6607 40.56 35.58L32.42 35.06C32.2862 35.0498 32.1517 35.0668 32.0246 35.1097C31.8974 35.1527 31.7803 35.2208 31.68 35.31L31.22 35.71C31.0248 35.8885 30.7669 35.9824 30.5026 35.9711C30.2384 35.9599 29.9893 35.8444 29.81 35.65C29.7117 35.5565 29.6334 35.4441 29.5799 35.3194C29.5263 35.1948 29.4987 35.0606 29.4987 34.925C29.4987 34.7893 29.5263 34.6551 29.5799 34.5305C29.6334 34.4058 29.7117 34.2934 29.81 34.2L31.47 32.64C31.898 32.2383 32.219 31.7362 32.4041 31.1792C32.5892 30.6222 32.6324 30.0279 32.53 29.45L32.43 28.86C32.3788 28.578 32.2676 28.3104 32.1039 28.0752C31.9403 27.8399 31.728 27.6426 31.4814 27.4966C31.2349 27.3506 30.9599 27.2592 30.6749 27.2288C30.39 27.1983 30.1019 27.2294 29.83 27.32L26.52 28.44C20.7859 30.3816 15.7407 33.95 12 38.71L9 42.53L18.66 54.53H22L26.15 48.22C26.5387 47.6247 27.0695 47.1357 27.6945 46.797C28.3195 46.4583 29.0191 46.2806 29.73 46.28H41.07C42.4956 46.2798 43.8667 45.7321 44.9 44.75L55.25 34.87C55.4829 34.6495 55.6693 34.3846 55.7981 34.0909C55.9269 33.7972 55.9956 33.4806 56 33.16C55.9943 32.7562 55.8876 32.3604 55.6897 32.0084C55.4918 31.6565 55.2091 31.3596 54.8671 31.1449C54.5252 30.9302 54.135 30.8045 53.732 30.7791C53.329 30.7538 52.9261 30.8297 52.56 31Z" fill="#DFE8F4"/>
<path d="M9.50977 41.89V43.16L18.5998 54.49H22.0498L24.2998 51.07L11.9798 38.75L9.50977 41.89Z" fill="#CCD8E5"/>
<path d="M8.0001 42V55.84C8.0001 55.8824 8.01695 55.9231 8.04696 55.9531C8.07697 55.9831 8.11766 56 8.1601 56H21.8601C22.2161 55.9981 22.5636 55.8913 22.8592 55.6929C23.1548 55.4945 23.3853 55.2133 23.5219 54.8846C23.6585 54.5559 23.6951 54.1942 23.6272 53.8447C23.5593 53.4953 23.3899 53.1736 23.1401 52.92L11.0001 40.74C10.7568 40.4841 10.4414 40.3082 10.0958 40.2358C9.75023 40.1634 9.39079 40.1979 9.06524 40.3346C8.73969 40.4713 8.46344 40.7039 8.27319 41.0013C8.08294 41.2988 7.98769 41.6471 8.0001 42Z" fill="#7367F0"/>
<path d="M20.14 55.92L8 43.78V55.84C8 55.8825 8.01686 55.9232 8.04686 55.9532C8.07687 55.9832 8.11757 56 8.16 56H20.16L20.14 55.92Z" fill="#544bd8"/>
</svg>
