<svg width="64" height="64" viewBox="0 0 64 64" fill="none" xmlns="http://www.w3.org/2000/svg">
<path d="M19.22 13.9199V11.7199C19.2208 11.067 19.0492 10.4254 18.7226 9.86004C18.396 9.29466 17.926 8.82548 17.36 8.4999V8.4999C16.7955 8.17044 16.1536 7.99683 15.5 7.99683C14.8464 7.99683 14.2045 8.17044 13.64 8.4999V8.4999C13.0741 8.82548 12.6041 9.29466 12.2775 9.86004C11.9509 10.4254 11.7793 11.067 11.78 11.7199V13.9199C11.7788 14.4933 11.9289 15.0569 12.2151 15.5537C12.5013 16.0506 12.9135 16.4632 13.41 16.7499V16.7499C14.0448 17.1187 14.7659 17.313 15.5 17.313C16.2342 17.313 16.9553 17.1187 17.59 16.7499V16.7499C18.0866 16.4632 18.4988 16.0506 18.785 15.5537C19.0712 15.0569 19.2212 14.4933 19.22 13.9199Z" fill="#DFE8F4"/>
<path d="M15.36 18.6201C11.29 18.6201 8 22.2201 8 38.7901H22.72C22.72 22.2201 19.42 18.6201 15.36 18.6201Z" fill="#DFE8F4"/>
<path d="M9.25 56C8.91848 56 8.60054 55.8683 8.36612 55.6339C8.1317 55.3995 8 55.0815 8 54.75V38.75H14.23L10.47 55C10.4125 55.2815 10.2599 55.5346 10.0377 55.7167C9.81546 55.8989 9.5373 55.9989 9.25 56V56Z" fill="#DFE8F4"/>
<path d="M21.46 56C21.625 56.0013 21.7886 55.97 21.9414 55.9077C22.0942 55.8455 22.2332 55.7536 22.3503 55.6374C22.4675 55.5212 22.5604 55.383 22.6239 55.2307C22.6873 55.0784 22.72 54.915 22.72 54.75V38.75H16.49L20.25 55C20.3054 55.2807 20.4561 55.5336 20.6766 55.7158C20.8971 55.8981 21.1739 55.9985 21.46 56V56Z" fill="#DFE8F4"/>
<path d="M15.36 18.6201C11.29 18.6201 8.00002 22.2201 8.00002 38.7901V54.7901C7.99808 55.0986 8.11028 55.3969 8.31504 55.6277C8.5198 55.8584 8.80266 56.0053 9.1092 56.0401C9.41574 56.0748 9.7243 55.995 9.97552 55.8159C10.2267 55.6369 10.4029 55.3712 10.47 55.0701L14 39.8901C14.0706 39.5771 14.2458 39.2975 14.4967 39.0975C14.7476 38.8975 15.0592 38.7891 15.38 38.7901V38.7901C15.7004 38.7909 16.0111 38.9 16.2617 39.0997C16.5122 39.2994 16.6878 39.578 16.76 39.8901L20.25 55.0001C20.3054 55.2808 20.4561 55.5337 20.6766 55.716C20.8972 55.8982 21.1739 55.9986 21.46 56.0001C21.625 56.0014 21.7886 55.9701 21.9415 55.9079C22.0943 55.8456 22.2332 55.7538 22.3504 55.6376C22.4675 55.5214 22.5605 55.3831 22.6239 55.2308C22.6874 55.0785 22.72 54.9151 22.72 54.7501V38.7501C22.72 22.2201 19.42 18.6201 15.36 18.6201Z" fill="#DFE8F4"/>
<path d="M52.4999 13.9199V11.7199C52.5007 11.067 52.3291 10.4254 52.0025 9.86004C51.6759 9.29466 51.2059 8.82548 50.6399 8.4999V8.4999C50.0754 8.17044 49.4336 7.99683 48.7799 7.99683C48.1263 7.99683 47.4844 8.17044 46.9199 8.4999C46.354 8.82548 45.884 9.29466 45.5574 9.86004C45.2308 10.4254 45.0592 11.067 45.0599 11.7199V13.9199C45.0588 14.4933 45.2088 15.0569 45.495 15.5537C45.7812 16.0506 46.1934 16.4632 46.6899 16.7499V16.7499C47.3247 17.1187 48.0458 17.313 48.7799 17.313C49.5141 17.313 50.2352 17.1187 50.8699 16.7499V16.7499C51.3665 16.4632 51.7787 16.0506 52.0649 15.5537C52.3511 15.0569 52.5011 14.4933 52.4999 13.9199V13.9199Z" fill="#DFE8F4"/>
<path d="M48.64 18.6201C44.58 18.6201 41.28 22.2201 41.28 38.7901H56C56 22.2201 52.71 18.6201 48.64 18.6201Z" fill="#DFE8F4"/>
<path d="M42.54 56C42.375 56.0013 42.2114 55.97 42.0586 55.9077C41.9058 55.8455 41.7668 55.7536 41.6497 55.6374C41.5325 55.5212 41.4396 55.383 41.3761 55.2307C41.3127 55.0784 41.28 54.915 41.28 54.75V38.75H47.51L43.75 55C43.6947 55.2807 43.5439 55.5336 43.3234 55.7158C43.1029 55.8981 42.8261 55.9985 42.54 56V56Z" fill="#DFE8F4"/>
<path d="M54.75 56C55.0815 56 55.3995 55.8683 55.6339 55.6339C55.8683 55.3995 56 55.0815 56 54.75V38.75H49.77L53.53 55C53.5875 55.2815 53.7402 55.5346 53.9624 55.7167C54.1846 55.8989 54.4627 55.9989 54.75 56V56Z" fill="#DFE8F4"/>
<path d="M48.64 18.6201C44.58 18.6201 41.28 22.2201 41.28 38.7901V54.7901C41.2905 55.1164 41.4281 55.4256 41.6636 55.6518C41.899 55.8779 42.2136 56.0029 42.54 56.0001C42.8261 55.9986 43.1029 55.8982 43.3234 55.716C43.5439 55.5337 43.6947 55.2808 43.75 55.0001L47.26 39.8601C47.3322 39.548 47.5079 39.2694 47.7584 39.0697C48.0089 38.87 48.3196 38.7609 48.64 38.7601C48.9616 38.7651 49.2718 38.8799 49.5192 39.0854C49.7665 39.291 49.9362 39.5749 50 39.8901L53.53 55.0001C53.5965 55.2989 53.7702 55.5628 54.0183 55.742C54.2664 55.9212 54.5716 56.0032 54.8761 55.9724C55.1806 55.9416 55.4632 55.8001 55.6703 55.5748C55.8775 55.3496 55.9948 55.0561 56 54.7501V38.7501C56 22.2201 52.71 18.6201 48.64 18.6201Z" fill="#DFE8F4"/>
<path d="M25.89 29.2801L19.6 20.8L20 33.25H23.88C24.2078 33.2514 24.5327 33.1879 24.8359 33.0634C25.1392 32.9388 25.4149 32.7556 25.6471 32.5243C25.8794 32.2929 26.0637 32.018 26.1895 31.7152C26.3152 31.4125 26.38 31.0879 26.38 30.76C26.3751 30.2277 26.2038 29.7101 25.89 29.2801V29.2801Z" fill="#DFE8F4"/>
<path d="M25.89 29.2799L19.89 21.1499V27.4199C19.89 28.0706 20.1478 28.6948 20.607 29.1559C21.0662 29.6169 21.6893 29.8773 22.34 29.8799H26.24C26.1523 29.6644 26.0345 29.4623 25.89 29.2799V29.2799Z" fill="#CCD8E5"/>
<path d="M36.8847 31.7959C42.9562 29.0978 45.6908 21.9887 42.9927 15.9172C40.2946 9.84574 33.1854 7.1111 27.114 9.80921C21.0425 12.5073 18.3079 19.6165 21.006 25.6879C23.7041 31.7594 30.8132 34.4941 36.8847 31.7959Z" fill="#7367F0"/>
<path d="M32.0499 19.7901C31.8188 19.7957 31.5928 19.7211 31.4105 19.5789C31.2281 19.4366 31.1007 19.2356 31.0499 19.0101C31.0302 18.8716 31.0398 18.7306 31.078 18.596C31.1162 18.4615 31.1822 18.3365 31.2718 18.2291C31.3613 18.1216 31.4723 18.0342 31.5978 17.9723C31.7232 17.9105 31.8602 17.8757 31.9999 17.8701C32.1686 17.8682 32.3347 17.9118 32.4807 17.9963C32.6268 18.0807 32.7474 18.2029 32.8299 18.3501C32.9197 18.4975 33.0461 18.6192 33.1968 18.7033C33.3475 18.7874 33.5174 18.8311 33.6899 18.8301V18.8301C33.8663 18.8359 34.041 18.795 34.1965 18.7114C34.3519 18.6279 34.4824 18.5047 34.5748 18.3544C34.6672 18.2041 34.7182 18.032 34.7227 17.8556C34.7271 17.6792 34.6847 17.5048 34.5999 17.3501C34.2412 16.7265 33.675 16.2487 32.9999 16.0001V16.0001C32.9999 15.7508 32.9009 15.5117 32.7246 15.3354C32.5483 15.1591 32.3092 15.0601 32.0599 15.0601H31.9199C31.6741 15.0653 31.4401 15.1666 31.2682 15.3424C31.0962 15.5181 30.9999 15.7542 30.9999 16.0001V16.0001C30.6113 16.1401 30.2558 16.3589 29.9557 16.6428C29.6556 16.9266 29.4174 17.2694 29.2559 17.6496C29.0944 18.0298 29.0132 18.4393 29.0174 18.8523C29.0215 19.2654 29.1109 19.6732 29.2799 20.0501C29.5295 20.5748 29.9237 21.0173 30.4162 21.3255C30.9087 21.6338 31.479 21.7949 32.0599 21.7901C32.2718 21.8476 32.4588 21.9733 32.5921 22.1477C32.7255 22.3221 32.7977 22.5355 32.7977 22.7551C32.7977 22.9746 32.7255 23.188 32.5921 23.3624C32.4588 23.5368 32.2718 23.6625 32.0599 23.7201C31.8915 23.7149 31.7271 23.6673 31.582 23.5817C31.4369 23.496 31.3158 23.375 31.2299 23.2301C31.1402 23.0826 31.0138 22.961 30.8631 22.8768C30.7124 22.7927 30.5425 22.7491 30.3699 22.7501C30.1936 22.7442 30.0188 22.7852 29.8634 22.8687C29.708 22.9523 29.5775 23.0754 29.4851 23.2257C29.3926 23.376 29.3416 23.5481 29.3372 23.7245C29.3328 23.9009 29.3751 24.0753 29.4599 24.2301C29.799 24.8468 30.3441 25.3246 30.9999 25.5801V25.5801C30.9999 25.8294 31.099 26.0685 31.2753 26.2447C31.4515 26.421 31.6906 26.5201 31.9399 26.5201H32.0799C32.3292 26.5201 32.5683 26.421 32.7446 26.2447C32.9209 26.0685 33.0199 25.8294 33.0199 25.5801V25.5801C33.6622 25.3273 34.1976 24.8609 34.536 24.2593C34.8744 23.6578 34.9951 22.958 34.8776 22.2779C34.7601 21.5977 34.4118 20.9789 33.8912 20.5258C33.3706 20.0726 32.7098 19.8127 32.0199 19.7901H32.0499Z" fill="white"/>
<path d="M22.5699 33.25H19.1899C18.9247 33.25 18.6704 33.3554 18.4828 33.5429C18.2953 33.7304 18.1899 33.9848 18.1899 34.25C18.1899 34.5152 18.2953 34.7696 18.4828 34.9571C18.6704 35.1446 18.9247 35.25 19.1899 35.25H22.6599C22.6299 34.53 22.6099 33.87 22.5699 33.25Z" fill="#CCD8E5"/>
<path d="M45.06 31.4899V27.4199L41.75 29.5599C41.55 31.1999 41.42 33.0799 41.34 35.2099C42.3266 35.2099 43.2728 34.818 43.9704 34.1204C44.668 33.4227 45.06 32.4765 45.06 31.4899Z" fill="#CCD8E5"/>
<path d="M44.3999 20.8101L40.9999 26.0901C40.3309 27.1294 39.4119 27.9843 38.327 28.5765C37.2421 29.1688 36.026 29.4794 34.7899 29.4801C34.5431 29.4801 34.2986 29.5287 34.0705 29.6232C33.8424 29.7176 33.6352 29.8561 33.4606 30.0307C33.286 30.2053 33.1475 30.4125 33.053 30.6406C32.9586 30.8687 32.9099 31.1132 32.9099 31.3601V31.3601C32.9086 31.6078 32.9563 31.8533 33.0502 32.0826C33.1441 32.3118 33.2823 32.5203 33.457 32.6959C33.6317 32.8715 33.8394 33.0109 34.0682 33.106C34.2969 33.2011 34.5422 33.2501 34.7899 33.2501H35.9999C38.6128 33.2515 41.1927 32.6672 43.5499 31.5401L46.8099 29.9401L44.3999 20.8101Z" fill="#DFE8F4"/>
</svg>
