<?xml version="1.0" encoding="utf-8"?>
<svg xmlns="http://www.w3.org/2000/svg" viewBox="0 0 24 24" fill="#ffffff"><path d="M17.478,14.084c-0.348-0.609-0.89-1.144-1.624-1.603c-0.735-0.46-1.758-0.881-3.068-1.264 c-1.31-0.382-2.251-0.807-2.822-1.276C9.392,9.474,9.106,8.845,9.106,8.056c0-0.85,0.271-1.514,0.813-1.989 c0.541-0.476,1.323-0.713,2.345-0.713c0.979,0,1.758,0.321,2.333,0.964c0.27,0.301,0.476,0.651,0.62,1.05 c0.071,0.199,0.199,0.659,0.206,0.679C15.624,8.649,15.967,9,16.559,9c0.654,0,1.184-0.414,1.184-1.184 c0-0.145-0.031-0.298-0.05-0.388c-0.18-0.896-0.535-1.645-1.067-2.248c-0.804-0.91-1.927-1.455-3.371-1.632L13.25,3.547V2 c0-0.552-0.448-1-1-1s-1,0.448-1,1v1.551C9.858,3.716,8.756,4.19,7.953,4.983C7.132,5.794,6.721,6.832,6.721,8.098 c0,1.243,0.419,2.268,1.257,3.075c0.838,0.806,2.172,1.461,4.002,1.963c1.315,0.394,2.249,0.834,2.804,1.32 c0.553,0.487,0.831,1.085,0.831,1.795c0,0.842-0.323,1.506-0.967,1.992c-0.645,0.486-1.53,0.729-2.656,0.729 c-1.151,0-2.165-0.289-2.792-0.868c-0.422-0.389-0.701-0.89-0.839-1.503c-0.005-0.023-0.078-0.258-0.13-0.355 c-0.196-0.37-0.595-0.619-1.044-0.619C6.532,15.625,6,16.157,6,16.813c0,0.288,0.144,0.696,0.188,0.816 c0.225,0.615,0.59,1.174,1.047,1.625c0.883,0.869,2.225,1.37,3.765,1.517V22c0,0.552,0.447,1,0.999,1s1-0.448,1-1v-1.21l0.025-0.001 c1.572-0.147,2.795-0.617,3.667-1.413C17.563,18.581,18,17.531,18,16.227C18,15.409,17.825,14.694,17.478,14.084z" fill="#ffffff"/></svg>
