<svg xmlns="http://www.w3.org/2000/svg" xmlns:xlink="http://www.w3.org/1999/xlink" width="350" zoomAndPan="magnify" viewBox="0 0 262.5 67.499998" height="90" preserveAspectRatio="xMidYMid meet" version="1.0"><defs><g/></defs><g fill="#7368f0" fill-opacity="1"><g transform="translate(6.998193, 54.766461)"><g><path d="M 18.125 -31.296875 C 21.320312 -31.296875 24.082031 -30.503906 26.40625 -28.921875 C 28.726562 -27.335938 29.890625 -24.96875 29.890625 -21.8125 C 29.890625 -15.445312 25.328125 -12.265625 16.203125 -12.265625 C 15.378906 -12.265625 13.898438 -12.304688 11.765625 -12.390625 C 11.765625 -9.929688 12.375 -8.144531 13.59375 -7.03125 C 14.8125 -5.914062 16.320312 -5.359375 18.125 -5.359375 C 21.320312 -5.359375 23.800781 -6.390625 25.5625 -8.453125 C 26.550781 -7.984375 27.359375 -7.347656 27.984375 -6.546875 C 28.617188 -5.753906 28.9375 -4.945312 28.9375 -4.125 C 28.9375 -2.84375 28.171875 -1.8125 26.640625 -1.03125 C 25.109375 -0.257812 23.617188 0.207031 22.171875 0.375 C 20.734375 0.539062 19.34375 0.625 18 0.625 C 13.269531 0.625 9.394531 -0.671875 6.375 -3.265625 C 3.363281 -5.859375 1.859375 -9.820312 1.859375 -15.15625 C 1.859375 -18.6875 2.6875 -21.710938 4.34375 -24.234375 C 6.007812 -26.765625 8.035156 -28.570312 10.421875 -29.65625 C 12.804688 -30.75 15.375 -31.296875 18.125 -31.296875 Z M 17.625 -25.1875 C 16.070312 -25.1875 14.71875 -24.488281 13.5625 -23.09375 C 12.40625 -21.695312 11.804688 -19.640625 11.765625 -16.921875 C 12.960938 -17.015625 13.804688 -17.09375 14.296875 -17.15625 C 14.785156 -17.21875 15.492188 -17.351562 16.421875 -17.5625 C 17.347656 -17.769531 18.015625 -18.054688 18.421875 -18.421875 C 18.835938 -18.796875 19.21875 -19.316406 19.5625 -19.984375 C 19.90625 -20.660156 20.078125 -21.492188 20.078125 -22.484375 C 20.078125 -23.148438 19.835938 -23.765625 19.359375 -24.328125 C 18.890625 -24.898438 18.3125 -25.1875 17.625 -25.1875 Z M 17.625 -25.1875 "/></g></g></g><g fill="#7368f0" fill-opacity="1"><g transform="translate(38.768973, 54.766461)"><g><path d="M 7.75 -47.984375 C 9.394531 -47.984375 10.664062 -47.695312 11.5625 -47.125 C 12.46875 -46.5625 12.921875 -45.46875 12.921875 -43.84375 C 12.921875 -43.570312 12.84375 -41.671875 12.6875 -38.140625 C 12.53125 -34.609375 12.453125 -31.960938 12.453125 -30.203125 L 12.453125 -12.515625 C 12.453125 -6.835938 12.820312 -2.875 13.5625 -0.625 C 11.75 -0.0820312 9.960938 0.1875 8.203125 0.1875 C 6.179688 0.1875 4.769531 -0.160156 3.96875 -0.859375 C 3.175781 -1.566406 2.78125 -2.613281 2.78125 -4 C 2.78125 -4.695312 2.8125 -6.207031 2.875 -8.53125 C 2.9375 -10.851562 2.96875 -12.75 2.96875 -14.21875 L 2.96875 -32.03125 C 2.96875 -38.1875 2.816406 -43.21875 2.515625 -47.125 C 4.160156 -47.695312 5.90625 -47.984375 7.75 -47.984375 Z M 7.75 -47.984375 "/></g></g></g><g fill="#7368f0" fill-opacity="1"><g transform="translate(54.843475, 54.766461)"><g><path d="M 7.75 -47.984375 C 9.394531 -47.984375 10.664062 -47.695312 11.5625 -47.125 C 12.46875 -46.5625 12.921875 -45.46875 12.921875 -43.84375 C 12.921875 -43.570312 12.84375 -41.671875 12.6875 -38.140625 C 12.53125 -34.609375 12.453125 -31.960938 12.453125 -30.203125 L 12.453125 -12.515625 C 12.453125 -6.835938 12.820312 -2.875 13.5625 -0.625 C 11.75 -0.0820312 9.960938 0.1875 8.203125 0.1875 C 6.179688 0.1875 4.769531 -0.160156 3.96875 -0.859375 C 3.175781 -1.566406 2.78125 -2.613281 2.78125 -4 C 2.78125 -4.695312 2.8125 -6.207031 2.875 -8.53125 C 2.9375 -10.851562 2.96875 -12.75 2.96875 -14.21875 L 2.96875 -32.03125 C 2.96875 -38.1875 2.816406 -43.21875 2.515625 -47.125 C 4.160156 -47.695312 5.90625 -47.984375 7.75 -47.984375 Z M 7.75 -47.984375 "/></g></g></g><g fill="#7368f0" fill-opacity="1"><g transform="translate(70.917976, 54.766461)"><g><path d="M 48.984375 -28.15625 L 48.984375 -13.109375 C 48.984375 -7.523438 49.394531 -3.363281 50.21875 -0.625 C 47.988281 -0.0820312 46.140625 0.1875 44.671875 0.1875 C 40.804688 0.1875 38.875 -1.421875 38.875 -4.640625 C 38.875 -5.160156 38.882812 -6.34375 38.90625 -8.1875 C 38.925781 -10.039062 38.945312 -12.765625 38.96875 -16.359375 C 38.988281 -19.953125 39 -23.429688 39 -26.796875 C 35.175781 -15.992188 32.609375 -7.226562 31.296875 -0.5 C 30.097656 -0.0820312 28.640625 0.125 26.921875 0.125 C 23.390625 0.125 21.300781 -0.671875 20.65625 -2.265625 C 19.832031 -4.242188 18.5625 -8.191406 16.84375 -14.109375 C 15.132812 -20.023438 13.734375 -24.359375 12.640625 -27.109375 L 12.640625 -13.109375 C 12.640625 -7.285156 13.050781 -3.019531 13.875 -0.3125 C 12.332031 0.0195312 10.828125 0.1875 9.359375 0.1875 C 5.703125 0.1875 3.875 -1.039062 3.875 -3.5 C 3.875 -4.175781 3.894531 -5.867188 3.9375 -8.578125 C 3.976562 -11.285156 4 -13.394531 4 -14.90625 L 4 -31.171875 C 4 -36.003906 3.59375 -39.800781 2.78125 -42.5625 C 5.488281 -42.9375 7.640625 -43.125 9.234375 -43.125 C 13.140625 -43.125 15.679688 -41.832031 16.859375 -39.25 C 18.140625 -36.363281 19.394531 -33.039062 20.625 -29.28125 C 21.863281 -25.519531 22.8125 -22.441406 23.46875 -20.046875 C 24.132812 -17.648438 25.179688 -13.828125 26.609375 -8.578125 C 29.003906 -20.023438 32.375 -30.488281 36.71875 -39.96875 C 37.289062 -41.164062 38.203125 -41.976562 39.453125 -42.40625 C 40.703125 -42.84375 42.335938 -43.0625 44.359375 -43.0625 C 46.648438 -43.0625 48.582031 -42.894531 50.15625 -42.5625 C 49.375 -39.976562 48.984375 -35.175781 48.984375 -28.15625 Z M 48.984375 -28.15625 "/></g></g></g><g fill="#7368f0" fill-opacity="1"><g transform="translate(123.900793, 54.766461)"><g><path d="M 18.125 -31.296875 C 21.320312 -31.296875 24.082031 -30.503906 26.40625 -28.921875 C 28.726562 -27.335938 29.890625 -24.96875 29.890625 -21.8125 C 29.890625 -15.445312 25.328125 -12.265625 16.203125 -12.265625 C 15.378906 -12.265625 13.898438 -12.304688 11.765625 -12.390625 C 11.765625 -9.929688 12.375 -8.144531 13.59375 -7.03125 C 14.8125 -5.914062 16.320312 -5.359375 18.125 -5.359375 C 21.320312 -5.359375 23.800781 -6.390625 25.5625 -8.453125 C 26.550781 -7.984375 27.359375 -7.347656 27.984375 -6.546875 C 28.617188 -5.753906 28.9375 -4.945312 28.9375 -4.125 C 28.9375 -2.84375 28.171875 -1.8125 26.640625 -1.03125 C 25.109375 -0.257812 23.617188 0.207031 22.171875 0.375 C 20.734375 0.539062 19.34375 0.625 18 0.625 C 13.269531 0.625 9.394531 -0.671875 6.375 -3.265625 C 3.363281 -5.859375 1.859375 -9.820312 1.859375 -15.15625 C 1.859375 -18.6875 2.6875 -21.710938 4.34375 -24.234375 C 6.007812 -26.765625 8.035156 -28.570312 10.421875 -29.65625 C 12.804688 -30.75 15.375 -31.296875 18.125 -31.296875 Z M 17.625 -25.1875 C 16.070312 -25.1875 14.71875 -24.488281 13.5625 -23.09375 C 12.40625 -21.695312 11.804688 -19.640625 11.765625 -16.921875 C 12.960938 -17.015625 13.804688 -17.09375 14.296875 -17.15625 C 14.785156 -17.21875 15.492188 -17.351562 16.421875 -17.5625 C 17.347656 -17.769531 18.015625 -18.054688 18.421875 -18.421875 C 18.835938 -18.796875 19.21875 -19.316406 19.5625 -19.984375 C 19.90625 -20.660156 20.078125 -21.492188 20.078125 -22.484375 C 20.078125 -23.148438 19.835938 -23.765625 19.359375 -24.328125 C 18.890625 -24.898438 18.3125 -25.1875 17.625 -25.1875 Z M 17.625 -25.1875 "/></g></g></g><g fill="#7368f0" fill-opacity="1"><g transform="translate(155.671573, 54.766461)"><g><path d="M 2.515625 -30.015625 C 4.285156 -30.578125 5.96875 -30.859375 7.5625 -30.859375 C 10.695312 -30.859375 12.484375 -29.585938 12.921875 -27.046875 C 15.722656 -29.835938 18.910156 -31.234375 22.484375 -31.234375 C 25.398438 -31.234375 27.800781 -30.394531 29.6875 -28.71875 C 31.582031 -27.039062 32.53125 -24.65625 32.53125 -21.5625 C 32.53125 -21.476562 32.5 -19.925781 32.4375 -16.90625 C 32.375 -13.894531 32.34375 -11.613281 32.34375 -10.0625 C 32.34375 -6.363281 32.710938 -3.21875 33.453125 -0.625 C 31.597656 -0.0820312 29.726562 0.1875 27.84375 0.1875 C 24.394531 0.1875 22.671875 -1.125 22.671875 -3.75 C 22.671875 -5.300781 22.734375 -8.148438 22.859375 -12.296875 C 22.984375 -16.453125 23.046875 -18.960938 23.046875 -19.828125 C 23.046875 -21.597656 22.691406 -22.921875 21.984375 -23.796875 C 21.285156 -24.679688 20.367188 -25.125 19.234375 -25.125 C 17.421875 -25.125 15.421875 -24.0625 13.234375 -21.9375 C 13.316406 -16.4375 13.359375 -12.457031 13.359375 -10 C 13.359375 -6.207031 13.46875 -2.894531 13.6875 -0.0625 C 12.269531 0.0625 11 0.125 9.875 0.125 C 5.582031 0.125 3.4375 -0.90625 3.4375 -2.96875 C 3.4375 -3.132812 3.488281 -4.640625 3.59375 -7.484375 C 3.695312 -10.335938 3.75 -13.285156 3.75 -16.328125 C 3.75 -23.347656 3.335938 -27.910156 2.515625 -30.015625 Z M 2.515625 -30.015625 "/></g></g></g><g fill="#7368f0" fill-opacity="1"><g transform="translate(191.63433, 54.766461)"><g><path d="M 33.203125 -0.625 C 31.078125 -0.0820312 29.265625 0.1875 27.765625 0.1875 C 26.378906 0.1875 25.203125 -0.117188 24.234375 -0.734375 C 23.273438 -1.359375 22.753906 -2.28125 22.671875 -3.5 C 19.515625 -0.75 16.109375 0.625 12.453125 0.625 C 6.378906 0.625 3.34375 -2.398438 3.34375 -8.453125 C 3.34375 -8.578125 3.378906 -10.144531 3.453125 -13.15625 C 3.523438 -16.175781 3.5625 -18.441406 3.5625 -19.953125 C 3.5625 -24.429688 3.210938 -27.785156 2.515625 -30.015625 C 4.203125 -30.578125 5.945312 -30.859375 7.75 -30.859375 C 11.445312 -30.859375 13.296875 -29.546875 13.296875 -26.921875 C 13.296875 -25.492188 13.234375 -22.84375 13.109375 -18.96875 C 12.984375 -15.101562 12.921875 -12.785156 12.921875 -12.015625 C 12.921875 -9.953125 13.25 -8.359375 13.90625 -7.234375 C 14.570312 -6.109375 15.398438 -5.546875 16.390625 -5.546875 C 18.597656 -5.546875 20.648438 -6.554688 22.546875 -8.578125 C 22.503906 -10.253906 22.484375 -12.859375 22.484375 -16.390625 C 22.484375 -21.390625 22.320312 -25.929688 22 -30.015625 C 23.726562 -30.578125 25.390625 -30.859375 26.984375 -30.859375 C 28.703125 -30.859375 30.035156 -30.597656 30.984375 -30.078125 C 31.929688 -29.566406 32.40625 -28.492188 32.40625 -26.859375 C 32.40625 -26.421875 32.351562 -25.109375 32.25 -22.921875 C 32.144531 -20.734375 32.070312 -19.007812 32.03125 -17.75 L 32.03125 -13.109375 C 32.03125 -7.648438 32.421875 -3.488281 33.203125 -0.625 Z M 33.203125 -0.625 "/></g></g></g><g fill="#7368f0" fill-opacity="1"><g transform="translate(227.344939, 54.766461)"><g><path d="M 19.890625 -20.9375 C 19.535156 -22.257812 18.925781 -23.285156 18.0625 -24.015625 C 17.195312 -24.753906 16.25 -25.125 15.21875 -25.125 C 14.238281 -25.125 13.40625 -24.863281 12.71875 -24.34375 C 12.039062 -23.832031 11.703125 -23.070312 11.703125 -22.0625 C 11.703125 -21.03125 12.203125 -20.210938 13.203125 -19.609375 C 14.210938 -19.015625 15.4375 -18.535156 16.875 -18.171875 C 18.320312 -17.804688 19.765625 -17.351562 21.203125 -16.8125 C 22.640625 -16.28125 23.867188 -15.390625 24.890625 -14.140625 C 25.910156 -12.890625 26.421875 -11.296875 26.421875 -9.359375 C 26.421875 -6.078125 25.113281 -3.59375 22.5 -1.90625 C 19.894531 -0.21875 16.828125 0.625 13.296875 0.625 C 12.179688 0.625 11.082031 0.570312 10 0.46875 C 8.925781 0.363281 7.6875 0.15625 6.28125 -0.15625 C 4.882812 -0.46875 3.765625 -1.023438 2.921875 -1.828125 C 2.085938 -2.628906 1.671875 -3.617188 1.671875 -4.796875 C 1.671875 -7.109375 3.414062 -8.914062 6.90625 -10.21875 C 7.34375 -8.65625 8.160156 -7.484375 9.359375 -6.703125 C 10.554688 -5.929688 11.828125 -5.546875 13.171875 -5.546875 C 16.054688 -5.546875 17.5 -6.578125 17.5 -8.640625 C 17.5 -9.648438 16.734375 -10.460938 15.203125 -11.078125 C 13.679688 -11.703125 12.015625 -12.21875 10.203125 -12.625 C 8.398438 -13.03125 6.734375 -13.953125 5.203125 -15.390625 C 3.671875 -16.835938 2.90625 -18.769531 2.90625 -21.1875 C 2.90625 -24.226562 4.207031 -26.671875 6.8125 -28.515625 C 9.414062 -30.367188 12.359375 -31.296875 15.640625 -31.296875 C 17.128906 -31.296875 18.640625 -31.140625 20.171875 -30.828125 C 21.710938 -30.515625 23.101562 -29.890625 24.34375 -28.953125 C 25.582031 -28.015625 26.203125 -26.882812 26.203125 -25.5625 C 26.203125 -24.40625 25.675781 -23.40625 24.625 -22.5625 C 23.570312 -21.726562 21.992188 -21.1875 19.890625 -20.9375 Z M 19.890625 -20.9375 "/></g></g></g></svg>