<svg width="64" height="64" viewBox="0 0 64 64" fill="none" xmlns="http://www.w3.org/2000/svg">
<path d="M32.05 32C38.6775 32 44.05 26.6274 44.05 20C44.05 13.3726 38.6775 8 32.05 8C25.4226 8 20.05 13.3726 20.05 20C20.05 26.6274 25.4226 32 32.05 32Z" fill="#7367F0"/>
<path d="M52.56 31.0001L44.1 34.9101C42.996 35.4302 41.7777 35.6608 40.56 35.5801L32.42 35.0601C32.2862 35.05 32.1517 35.0669 32.0246 35.1098C31.8974 35.1528 31.7803 35.2209 31.68 35.3101L31.22 35.7101C31.0248 35.8886 30.7669 35.9825 30.5026 35.9712C30.2384 35.96 29.9893 35.8445 29.81 35.6501C29.7117 35.5567 29.6334 35.4442 29.5799 35.3196C29.5263 35.1949 29.4987 35.0607 29.4987 34.9251C29.4987 34.7894 29.5263 34.6552 29.5799 34.5306C29.6334 34.4059 29.7117 34.2935 29.81 34.2001L31.47 32.6401C31.898 32.2384 32.219 31.7363 32.4041 31.1794C32.5892 30.6224 32.6324 30.028 32.53 29.4501L32.43 28.8601C32.3788 28.5781 32.2676 28.3105 32.1039 28.0753C31.9403 27.8401 31.728 27.6428 31.4814 27.4967C31.2349 27.3507 30.9599 27.2594 30.6749 27.2289C30.39 27.1984 30.1019 27.2295 29.83 27.3201L26.52 28.4401C20.7859 30.3817 15.7407 33.9501 12 38.7101L9 42.5301L18.66 54.5301H22L26.15 48.2201C26.5387 47.6248 27.0695 47.1358 27.6945 46.7971C28.3195 46.4584 29.0191 46.2807 29.73 46.2801H41.07C42.4956 46.2799 43.8667 45.7322 44.9 44.7501L55.25 34.8701C55.4829 34.6496 55.6693 34.3847 55.7981 34.091C55.9269 33.7973 55.9956 33.4808 56 33.1601C55.9943 32.7564 55.8876 32.3605 55.6897 32.0085C55.4918 31.6566 55.2091 31.3597 54.8671 31.145C54.5252 30.9303 54.135 30.8046 53.732 30.7793C53.329 30.7539 52.9261 30.8299 52.56 31.0001Z" fill="#DFE8F4"/>
<path d="M9.51001 41.89V43.16L18.6 54.49H22.05L24.3 51.07L11.98 38.75L9.51001 41.89Z" fill="#CCD8E5"/>
<path d="M7.99998 42.0001V55.8401C7.99998 55.8825 8.01683 55.9232 8.04684 55.9532C8.07684 55.9832 8.11754 56.0001 8.15998 56.0001H21.86C22.216 55.9982 22.5635 55.8914 22.8591 55.693C23.1546 55.4946 23.3851 55.2135 23.5218 54.8847C23.6584 54.556 23.695 54.1943 23.6271 53.8449C23.5592 53.4954 23.3898 53.1737 23.14 52.9201L11 40.7401C10.7567 40.4842 10.4413 40.3084 10.0957 40.236C9.75011 40.1635 9.39067 40.198 9.06512 40.3347C8.73957 40.4715 8.46332 40.704 8.27307 41.0015C8.08282 41.2989 7.98757 41.6472 7.99998 42.0001Z" fill="#7367F0"/>
<path d="M20.14 55.92L8 43.78V55.84C8 55.8825 8.01686 55.9232 8.04686 55.9532C8.07687 55.9832 8.11757 56 8.16 56H20.16L20.14 55.92Z" fill="#7367F0"/>
<path d="M36.55 14.27C36.2951 14.272 36.0484 14.3601 35.85 14.52C35.0685 15.0669 34.1783 15.4387 33.24 15.61L29.93 16.32C29.1862 16.4717 28.4291 16.5488 27.67 16.55H26.4C25.89 16.55 25.48 17.85 25.48 19.46C25.48 21.07 25.89 22.36 26.4 22.36C26.6501 22.3601 26.8949 22.433 27.1044 22.5697C27.3139 22.7064 27.4791 22.9011 27.58 23.13L28.39 25C28.4871 25.2247 28.6476 25.4163 28.8518 25.5512C29.0561 25.6862 29.2952 25.7587 29.54 25.76V25.76H29.62H29.68C29.7925 25.76 29.9038 25.7377 30.0076 25.6944C30.1114 25.651 30.2055 25.5875 30.2846 25.5075C30.3636 25.4275 30.426 25.3327 30.4682 25.2284C30.5103 25.1241 30.5313 25.0125 30.53 24.9C30.5198 24.7268 30.5198 24.5532 30.53 24.38C30.5491 24.1789 30.6109 23.9842 30.7113 23.8089C30.8116 23.6335 30.9482 23.4817 31.112 23.3633C31.2757 23.245 31.4628 23.163 31.6608 23.1228C31.8588 23.0825 32.063 23.085 32.26 23.13V23.13L33.67 23.43C34.4543 23.5926 35.1903 23.9349 35.82 24.43C36.0215 24.583 36.267 24.6671 36.52 24.67C37.95 24.67 38.59 22.07 38.59 19.49C38.59 16.91 38 14.27 36.55 14.27ZM36.82 22.87C36.7965 22.9217 36.7584 22.9653 36.7105 22.9955C36.6625 23.0257 36.6067 23.0412 36.55 23.04V15.87C36.6078 15.8697 36.6644 15.8866 36.7125 15.9187C36.7606 15.9508 36.798 15.9965 36.82 16.05C37.2118 17.1427 37.3917 18.3 37.35 19.46C37.3895 20.6199 37.2097 21.7768 36.82 22.87Z" fill="white"/>
<path d="M38 19.4599C38 21.9999 37.34 23.9999 36.55 23.9999C35.76 23.9999 35.11 21.9999 35.11 19.4599C35.11 16.9199 35.75 14.9099 36.55 14.9099C37.35 14.9099 38 16.9399 38 19.4599Z" fill="white"/>
<path d="M36.82 16.05C36.7966 15.9964 36.7582 15.9509 36.7093 15.9189C36.6605 15.8869 36.6034 15.8699 36.545 15.8699C36.4866 15.8699 36.4294 15.8869 36.3806 15.9189C36.3317 15.9509 36.2933 15.9964 36.27 16.05C35.8832 17.1439 35.7035 18.3003 35.74 19.46C35.7056 20.6196 35.8853 21.7755 36.27 22.87C36.2961 22.9203 36.3356 22.9625 36.3841 22.9919C36.4326 23.0213 36.4882 23.0369 36.545 23.0369C36.6017 23.0369 36.6573 23.0213 36.7058 22.9919C36.7543 22.9625 36.7938 22.9203 36.82 22.87C37.2097 21.7768 37.3895 20.6199 37.35 19.46C37.3917 18.3 37.2118 17.1426 36.82 16.05V16.05Z" fill="#DFE8F4"/>
<path d="M26.42 22.3601C26.6702 22.3602 26.915 22.4331 27.1245 22.5698C27.334 22.7065 27.4992 22.9012 27.6 23.1301L28.39 25.0001C28.4872 25.2248 28.6477 25.4163 28.8519 25.5513C29.0561 25.6863 29.2953 25.7588 29.54 25.7601H29.62H29.68C29.7925 25.7601 29.9039 25.7378 30.0077 25.6945C30.1114 25.6511 30.2056 25.5876 30.2846 25.5076C30.3637 25.4276 30.4261 25.3327 30.4682 25.2285C30.5104 25.1242 30.5314 25.0126 30.53 24.9001C30.5198 24.7269 30.5198 24.5533 30.53 24.3801C30.5655 24.0066 30.7475 23.6623 31.036 23.4224C31.3246 23.1826 31.6963 23.0667 32.07 23.1001C30.2084 22.7095 28.3195 22.4621 26.42 22.3601V22.3601Z" fill="white"/>
</svg>
